<?xml version="1.0" encoding="utf-8"?>
<svg version="1.1" xmlns:xlink="http://www.w3.org/1999/xlink" width="70px" height="18px" xmlns="http://www.w3.org/2000/svg">
  <defs>
    <mask fill="white" id="clip9">
      <path d="M 0 18  L 0 0  L 35 0  L 70 0  L 70 18  L 38 18  L 0 18  Z " fill-rule="evenodd" />
    </mask>
  </defs>
  <g transform="matrix(1 0 0 1 -360 -110 )">
    <path d="M 0 18  L 0 0  L 35 0  L 70 0  L 70 18  L 38 18  L 0 18  Z " fill-rule="nonzero" fill="#000000" stroke="none" transform="matrix(1 0 0 1 360 110 )" />
    <path d="M 0 18  L 0 0  L 35 0  L 70 0  L 70 18  L 38 18  L 0 18  Z " stroke-width="2" stroke="#797979" fill="none" transform="matrix(1 0 0 1 360 110 )" mask="url(#clip9)" />
  </g>
</svg>